<?xml version="1.0" standalone="no"?>
<!DOCTYPE svg PUBLIC "-//W3C//DTD SVG 20010904//EN"
 "http://www.w3.org/TR/2001/REC-SVG-20010904/DTD/svg10.dtd">
<svg version="1.0" xmlns="http://www.w3.org/2000/svg"
 width="226.000000pt" height="263.000000pt" viewBox="0 0 226.000000 263.000000"
 preserveAspectRatio="xMidYMid meet">

<g transform="translate(0.000000,263.000000) scale(0.100000,-0.100000)"
 stroke="none">
<path d="M1505 2375 c-100 -14 -192 -36 -275 -66 -82 -30 -210 -91 -210 -101
0 -4 -6 -8 -14 -8 -25 0 -178 -117 -264 -202 -232 -231 -360 -502 -394 -836
-18 -182 9 -398 72 -569 l19 -51 -71 -12 c-40 -7 -116 -13 -170 -14 -54 0 -98
-3 -98 -6 1 -10 174 -136 254 -184 78 -47 307 -157 315 -150 1 1 -7 13 -19 26
-47 50 -200 303 -200 331 0 2 26 10 58 17 212 47 469 182 655 344 243 213 418
497 497 807 12 45 20 82 18 83 -2 0 -32 11 -68 23 -75 25 -167 66 -130 58 14
-3 68 -9 121 -12 l95 -6 5 59 c7 97 4 324 -4 397 -6 47 -13 67 -23 67 -8 0
-14 5 -14 10 0 13 -40 11 -155 -5z m-286 -281 c12 -15 21 -34 21 -44 0 -27
-39 -70 -63 -70 -29 0 -67 39 -67 69 0 31 37 71 66 71 12 0 32 -12 43 -26z"/>
</g>
</svg>
