<?xml version="1.0" standalone="no"?>
<!DOCTYPE svg PUBLIC "-//W3C//DTD SVG 20010904//EN"
 "http://www.w3.org/TR/2001/REC-SVG-20010904/DTD/svg10.dtd">
<svg version="1.0" xmlns="http://www.w3.org/2000/svg"
 width="599.000000pt" height="598.000000pt" viewBox="0 0 599.000000 598.000000"
 preserveAspectRatio="xMidYMid meet">

<g transform="translate(0.000000,598.000000) scale(0.100000,-0.100000)"
stroke="currentColor" fill="currentColor">
<path d="M2830 5330 c-367 -29 -689 -125 -1006 -301 -889 -495 -1379 -1513
-1208 -2514 41 -241 104 -435 219 -670 355 -729 1061 -1231 1880 -1336 142
-18 459 -15 610 5 590 80 1130 374 1516 825 315 369 498 780 570 1281 16 110
16 446 0 575 -76 630 -391 1201 -884 1604 -258 210 -602 381 -937 466 -220 56
-533 82 -760 65z m411 -130 c503 -51 972 -268 1348 -626 363 -345 596 -786
682 -1289 26 -155 36 -431 20 -590 -52 -518 -274 -999 -631 -1369 -620 -642
-1537 -868 -2382 -586 -580 193 -1060 611 -1328 1155 -114 232 -178 434 -217
680 -25 157 -25 528 0 680 85 512 292 920 652 1281 276 278 602 473 968 580
139 40 292 72 397 83 112 12 374 12 491 1z"/>
<path d="M2858 4633 c-26 -4 -27 -6 -21 -51 3 -26 6 -48 7 -48 1 -1 45 1 99 3
l97 6 0 48 0 49 -77 -1 c-43 -1 -90 -4 -105 -6z"/>
<path d="M3246 4598 c-3 -13 -6 -35 -6 -49 0 -24 5 -27 94 -45 l95 -20 11 44
c6 25 7 48 3 53 -7 6 -159 39 -183 39 -4 0 -10 -10 -14 -22z"/>
<path d="M2515 4569 c-38 -11 -74 -24 -78 -28 -11 -11 13 -91 28 -91 6 0 31 7
56 15 24 7 62 19 85 25 l41 10 -10 45 c-12 53 -17 54 -122 24z"/>
<path d="M3636 4470 c-9 -22 -16 -42 -16 -45 0 -6 170 -88 174 -84 11 16 46
82 44 84 -8 7 -146 73 -164 79 -18 6 -24 0 -38 -34z"/>
<path d="M2137 4405 c-42 -25 -77 -50 -77 -56 0 -6 10 -25 22 -42 12 -18 22
-33 23 -35 2 -2 150 83 164 95 8 6 -32 83 -43 83 -6 0 -46 -20 -89 -45z"/>
<path d="M3987 4271 l-27 -40 76 -61 75 -62 30 28 c16 15 29 34 29 41 0 11
-137 133 -150 133 -3 0 -17 -18 -33 -39z"/>
<path d="M1805 4150 l-69 -70 29 -30 c16 -16 34 -30 40 -30 14 0 135 122 135
136 0 10 -51 64 -61 64 -2 0 -36 -31 -74 -70z"/>
<path d="M4281 3991 l-34 -28 58 -76 c31 -43 59 -77 61 -77 12 0 74 44 74 53
0 15 -101 150 -115 154 -5 1 -25 -10 -44 -26z"/>
<path d="M1555 3847 c-21 -34 -45 -72 -53 -84 -13 -21 -12 -23 34 -45 32 -16
48 -19 51 -11 2 6 25 43 50 82 25 40 44 73 42 75 -31 23 -69 46 -76 46 -4 0
-26 -28 -48 -63z"/>
<path d="M2845 3854 c-38 -7 -77 -13 -85 -13 -37 -3 -44 -17 -31 -64 l13 -45
51 14 c29 8 64 14 79 14 47 0 58 10 58 49 0 56 -6 59 -85 45z"/>
<path d="M3136 3845 c-3 -9 -6 -31 -6 -49 0 -32 1 -32 76 -50 41 -9 82 -20 90
-23 13 -5 26 18 39 70 6 21 0 24 -62 40 -119 29 -130 30 -137 12z"/>
<path d="M2444 3701 c-32 -22 -69 -48 -81 -58 l-22 -18 33 -39 33 -38 63 46
c35 26 71 51 79 56 14 7 13 13 -6 47 -12 20 -26 39 -30 40 -5 2 -36 -14 -69
-36z"/>
<path d="M3509 3673 l-23 -37 28 -20 c16 -12 49 -38 75 -59 l46 -37 35 36 35
35 -35 30 c-48 42 -117 89 -128 89 -6 0 -21 -17 -33 -37z"/>
<path d="M4503 3653 c-18 -9 -33 -21 -33 -26 0 -5 14 -39 30 -77 17 -38 30
-73 30 -79 0 -14 13 -14 61 1 22 6 39 15 39 20 0 23 -73 178 -84 177 -6 0 -26
-8 -43 -16z"/>
<path d="M1397 3543 c-7 -11 -57 -172 -57 -182 0 -8 90 -36 94 -29 7 13 57
180 54 183 -4 3 -79 35 -84 35 -1 0 -5 -3 -7 -7z"/>
<path d="M2168 3422 c-14 -21 -38 -61 -52 -90 l-26 -52 25 -10 c15 -6 35 -15
45 -20 17 -9 22 -4 41 32 12 24 34 62 50 84 l28 42 -37 26 c-21 14 -41 26 -44
26 -3 0 -17 -17 -30 -38z"/>
<path d="M3799 3394 l-37 -25 42 -84 c44 -91 41 -89 109 -61 l28 11 -46 93
c-25 50 -49 92 -53 92 -4 0 -24 -12 -43 -26z"/>
<path d="M2905 3267 c-109 -37 -186 -103 -232 -202 -24 -52 -28 -72 -28 -150
0 -81 3 -97 32 -155 38 -77 97 -137 173 -177 50 -25 65 -28 155 -28 90 0 105
3 155 28 76 40 135 100 173 177 29 58 32 74 32 155 0 77 -4 98 -27 147 -61
131 -177 209 -318 215 -44 2 -91 -3 -115 -10z"/>
<path d="M4625 3269 l-30 -8 14 -97 15 -96 44 5 c23 2 46 7 49 10 6 6 -14 157
-24 183 -6 16 -23 16 -68 3z"/>
<path d="M1295 3140 c-2 -3 -7 -49 -11 -103 l-7 -97 50 0 50 0 7 77 c10 127
12 120 -40 125 -25 2 -47 1 -49 -2z"/>
<path d="M2026 3053 c-8 -28 -12 -181 -4 -188 4 -4 27 -4 52 -1 l45 7 3 92 c2
51 3 93 3 94 0 0 -21 4 -47 8 -40 6 -47 4 -52 -12z"/>
<path d="M3909 3013 c-14 -3 -17 -25 -21 -131 -3 -70 -7 -133 -9 -141 -3 -9
11 -18 43 -26 l47 -13 7 31 c10 48 19 177 16 235 -3 52 -3 52 -35 51 -18 -1
-39 -3 -48 -6z"/>
<path d="M4626 2818 c-8 -102 -5 -108 55 -108 l36 0 7 61 c3 34 6 79 6 100 l0
39 -49 0 -48 0 -7 -92z"/>
<path d="M1322 2733 c-37 -5 -37 1 -10 -147 l11 -58 45 6 c25 3 47 8 49 10 2
2 -3 43 -12 91 -8 48 -15 92 -15 96 0 9 -7 9 -68 2z"/>
<path d="M2105 2665 c-35 -11 -40 -16 -38 -39 2 -34 63 -166 76 -166 20 0 78
43 73 54 -3 6 -19 45 -36 86 -17 41 -32 75 -33 75 -1 1 -20 -4 -42 -10z"/>
<path d="M3757 2463 l-48 -76 27 -28 c15 -16 34 -29 41 -29 14 0 113 144 113
164 0 11 -60 46 -78 46 -4 0 -29 -35 -55 -77z"/>
<path d="M4556 2436 c-14 -46 -26 -88 -26 -93 0 -5 20 -16 45 -25 l44 -17 26
82 c14 45 28 90 31 99 4 13 -4 19 -33 27 -21 6 -43 11 -49 11 -7 0 -23 -38
-38 -84z"/>
<path d="M1432 2341 c-51 -18 -50 -22 3 -139 l34 -73 41 23 c47 27 47 29 -2
134 l-33 70 -43 -15z"/>
<path d="M2300 2310 l-35 -30 52 -49 c29 -27 66 -59 82 -70 l29 -21 27 41 c14
23 25 42 23 43 -2 2 -33 28 -70 60 -37 31 -69 56 -71 56 -1 0 -18 -13 -37 -30z"/>
<path d="M3545 2240 c-3 -5 -37 -28 -75 -51 l-69 -41 21 -41 c11 -23 22 -44
24 -46 5 -6 174 103 174 112 0 12 -51 77 -61 77 -4 0 -11 -4 -14 -10z"/>
<path d="M4424 2123 c-10 -16 -32 -52 -51 -80 l-33 -53 41 -30 42 -30 26 43
c15 23 40 63 55 89 l27 47 -40 20 c-22 12 -43 21 -45 21 -3 0 -13 -12 -22 -27z"/>
<path d="M2635 2085 c-10 -25 -16 -47 -14 -49 7 -7 170 -56 184 -56 13 0 27
47 27 85 0 6 -33 20 -74 31 -40 12 -80 24 -89 28 -13 6 -21 -3 -34 -39z"/>
<path d="M3103 2067 l-73 -10 0 -48 c0 -42 3 -49 19 -49 40 0 176 22 184 29 5
5 3 27 -3 50 -12 46 -7 45 -127 28z"/>
<path d="M1625 1984 c-11 -8 -27 -19 -35 -24 -12 -7 -8 -18 23 -62 20 -29 49
-66 62 -81 l26 -29 34 27 c19 14 35 30 35 35 0 15 -104 149 -115 149 -5 0 -19
-7 -30 -15z"/>
<path d="M4147 1762 l-67 -67 31 -39 32 -38 73 73 74 73 -32 33 c-18 18 -35
33 -38 33 -3 0 -36 -30 -73 -68z"/>
<path d="M1880 1671 l-31 -40 78 -60 c43 -34 80 -61 83 -61 3 0 17 18 32 39
l27 38 -79 61 -79 62 -31 -39z"/>
<path d="M3840 1524 c-41 -26 -77 -48 -79 -50 -7 -6 31 -84 41 -84 13 0 66 29
125 68 l53 34 -28 39 c-15 21 -29 39 -32 39 -3 -1 -39 -21 -80 -46z"/>
<path d="M2213 1436 l-22 -44 90 -41 c50 -23 94 -39 98 -37 9 6 36 85 30 89
-3 2 -116 52 -164 73 -6 3 -20 -15 -32 -40z"/>
<path d="M3472 1362 l-83 -27 7 -40 c3 -22 10 -44 14 -49 7 -7 103 16 175 44
23 9 23 9 7 54 -9 25 -21 45 -27 45 -5 -1 -47 -13 -93 -27z"/>
<path d="M2592 1293 c-7 -25 -11 -48 -9 -50 9 -8 192 -40 199 -34 3 3 8 26 9
50 l4 45 -74 12 c-41 7 -84 15 -96 18 -18 5 -23 -1 -33 -41z"/>
<path d="M3048 1293 l-58 -4 0 -51 0 -51 101 6 c56 4 104 9 107 11 2 3 1 26
-2 51 l-7 45 -42 -2 c-23 -1 -68 -3 -99 -5z"/>
<path d="M638 1575 c-14 -8 -37 -36 -50 -62 -23 -48 -23 -52 -26 -448 -2 -281
0 -416 8 -455 29 -133 110 -238 217 -282 57 -23 62 -23 458 -23 385 0 401 1
435 21 110 64 104 184 -17 345 -84 111 -709 786 -776 837 -31 24 -73 52 -94
63 -44 22 -117 24 -155 4z m127 -131 c61 -41 96 -76 394 -399 371 -402 388
-421 433 -490 50 -77 50 -115 -2 -128 -19 -5 -185 -7 -370 -5 l-335 3 -57 27
c-38 17 -67 40 -86 67 -53 73 -57 109 -57 532 0 451 -1 446 80 393z"/>
</g>
</svg>
