<?xml version="1.0" standalone="no"?>
<!DOCTYPE svg PUBLIC "-//W3C//DTD SVG 20010904//EN"
 "http://www.w3.org/TR/2001/REC-SVG-20010904/DTD/svg10.dtd">
<svg version="1.0" xmlns="http://www.w3.org/2000/svg"
 width="296.000000pt" height="291.000000pt" viewBox="0 0 296.000000 291.000000"
 preserveAspectRatio="xMidYMid meet">

<g transform="translate(0.000000,291.000000) scale(0.100000,-0.100000)"
stroke="currentColor" fill="currentColor">
<path d="M1285 2176 c-139 -27 -240 -74 -343 -157 -214 -173 -317 -454 -268
-729 16 -87 53 -190 90 -249 25 -40 26 -44 26 -216 0 -139 3 -177 14 -181 7
-3 66 20 131 50 l117 56 70 -31 c107 -47 194 -61 333 -57 209 8 353 74 510
232 149 151 212 289 222 486 17 324 -156 607 -450 740 -132 59 -318 82 -452
56z m58 -825 c81 -39 172 -19 235 53 37 42 41 31 17 -50 -24 -82 -92 -134
-176 -134 -48 0 -72 11 -117 53 -31 30 -62 105 -62 151 0 17 5 15 30 -16 16
-20 49 -46 73 -57z m-157 -110 c103 -95 267 -118 397 -57 62 30 138 106 168
169 l20 42 -5 -50 c-13 -104 -95 -218 -193 -266 -64 -32 -190 -38 -262 -14
-127 42 -208 150 -235 315 -5 30 -1 25 24 -27 19 -39 50 -80 86 -112z m739 17
c-44 -171 -176 -312 -345 -369 -90 -30 -221 -30 -309 0 -169 58 -291 190 -342
370 -10 36 -17 66 -15 68 1 2 20 -31 41 -73 105 -213 346 -331 577 -283 76 16
185 71 244 123 55 48 124 148 145 209 20 57 22 28 4 -45z m-1071 -147 c94
-141 239 -243 409 -287 82 -21 243 -21 327 1 202 52 392 212 466 394 33 79 29
32 -5 -65 -66 -192 -212 -338 -409 -412 -90 -33 -275 -42 -372 -18 -219 55
-398 218 -471 430 -32 89 -39 149 -10 74 10 -26 40 -78 65 -117z"/>
</g>
</svg>
